<svg xmlns="http://www.w3.org/2000/svg" viewBox="0 0 32 32"><path d="M0 0h32v32H0z" fill="#4d426e"/><g class="icon-color" fill="#fff"><path d="M5.94 4.958c-.466 0-.776.317-.776.792v20.595c0 .475.31.792.775.792h3.824v-1.584H6.714V6.542h3.1v5.545c0 .475.31.792.776.792h7.75c.465 0 .776-.317.776-.792V6.542h1.24c.465 0 .775.158 1.085.475l2.945 3.169c.62.633.93 1.425.93 2.218v.475h1.55v-.95c0-.793-.31-1.585-.93-2.219l-3.72-3.802c-.465-.633-1.24-.95-2.015-.95zm8.99 1.584h2.325c.155 0 .31.158.31.475v3.96c0 .16-.155.318-.31.318H14.93c-.31 0-.465-.159-.465-.317v-3.96c0-.318.155-.476.465-.476z"/><path d="M25.58 15.976H11.983a1.36 1.39 0 0 0-1.36 1.39v8.337c0 .768.608 1.39 1.36 1.39h13.595a1.36 1.39 0 0 0 1.361-1.39v-8.338a1.36 1.39 0 0 0-1.36-1.389zm.226 9.727a.23.23 0 0 1-.226.231H11.983a.226.231 0 0 1-.226-.23v-8.339c0-.126.1-.231.226-.231h13.595a.23.23 0 0 1 .228.231zm-10.367-3.762v-.812a.341.349 0 0 0-.342-.348h-.79a.341.349 0 0 0-.341.348v.812c0 .19.152.346.34.346h.791a.341.349 0 0 0 .342-.348zm2.719 0v-.812a.341.349 0 0 0-.34-.348h-.794a.341.349 0 0 0-.34.348v.812c0 .19.153.346.342.346h.792a.341.349 0 0 0 .341-.348zm2.72 0v-.812a.341.349 0 0 0-.341-.348h-.792a.341.349 0 0 0-.341.348v.812c0 .19.153.346.34.346h.793a.341.349 0 0 0 .341-.348zm2.719 0v-.812a.341.349 0 0 0-.341-.348h-.792a.341.349 0 0 0-.341.348v.812c0 .19.153.346.34.346h.795a.341.349 0 0 0 .339-.348zm-9.518 2.373v-.811a.341.349 0 0 0-.341-.347h-.792a.341.349 0 0 0-.341.348v.81c0 .191.153.348.34.348h.795a.341.349 0 0 0 .339-.348zm10.878 0v-.811a.341.349 0 0 0-.342-.347h-.792a.341.349 0 0 0-.34.348v.81c0 .191.153.348.34.348h.794a.341.349 0 0 0 .34-.348zm-10.88-4.748v-.81a.341.349 0 0 0-.34-.347h-.791a.341.349 0 0 0-.341.349v.81c0 .191.153.348.34.348h.795a.341.349 0 0 0 .339-.349zm2.72 0v-.81a.341.349 0 0 0-.342-.347h-.79a.341.349 0 0 0-.341.349v.81c0 .191.152.348.34.348h.791a.341.349 0 0 0 .341-.349zm2.718 0v-.81a.341.349 0 0 0-.339-.347h-.79a.341.349 0 0 0-.34.349v.81c0 .191.152.348.34.348h.793a.341.349 0 0 0 .341-.349zm2.721 0v-.81a.341.349 0 0 0-.341-.347h-.792a.341.349 0 0 0-.341.349v.81c0 .191.153.348.34.348h.793a.341.349 0 0 0 .341-.349zm2.719 0v-.81a.341.349 0 0 0-.341-.347h-.792a.341.349 0 0 0-.341.349v.81c0 .191.153.348.34.348h.794a.341.349 0 0 0 .34-.349zm-2.775 4.573v-.462a.341.349 0 0 0-.34-.349h-6.12a.341.349 0 0 0-.34.349v.462c0 .192.153.349.34.349h6.12a.341.349 0 0 0 .34-.349z"/></g></svg>
